<svg xmlns="http://www.w3.org/2000/svg" width="1180" height="664" viewBox="0 0 1180 664" font-family="'New Computer Modern', 'Latin Modern Roman', Georgia, 'Times New Roman', serif"><rect x="0" y="0" width="1180" height="664" fill="#ffffff"/><rect x="398" y="60" width="388" height="504" rx="10" fill="#ffffff" stroke="#2b2f37" stroke-width="1.6"/><path d="M398,108 h388" fill="none" stroke="#2b2f37" stroke-width="1.6"/><rect x="398" y="60" width="388" height="48" rx="10" fill="#3b4250"/><rect x="398" y="96" width="388" height="12" rx="0" fill="#3b4250"/><text x="414" y="82" font-size="16" fill="#ffffff" font-family="'Latin Modern Mono', 'DejaVu Sans Mono', 'Consolas', monospace" text-anchor="start" font-weight="bold">messages</text><text x="414" y="99" font-size="10.5" fill="#c9cfd8" font-family="'New Computer Modern', 'Latin Modern Roman', Georgia, 'Times New Roman', serif" text-anchor="start" font-style="italic">src/chat/model.py · class Message</text><text x="772" y="90" font-size="10.5" fill="#c9cfd8" font-family="'New Computer Modern', 'Latin Modern Roman', Georgia, 'Times New Roman', serif" text-anchor="end" font-style="italic">PostgreSQL table</text><rect x="400" y="112" width="5" height="30" rx="2" fill="#b8860b"/><text x="416" y="124" font-size="13" fill="#1b2130" font-family="'Latin Modern Mono', 'DejaVu Sans Mono', 'Consolas', monospace" text-anchor="start" font-weight="bold">id</text><text x="772" y="124" font-size="11" fill="#5b6472" font-family="'Latin Modern Mono', 'DejaVu Sans Mono', 'Consolas', monospace" text-anchor="end">uuid</text><text x="416" y="138" font-size="9.6" fill="#8a8f99" font-family="'New Computer Modern', 'Latin Modern Roman', Georgia, 'Times New Roman', serif" text-anchor="start">primary key · uuid7</text><rect x="400" y="146" width="384" height="38" rx="0" fill="#f7f7f5"/><rect x="400" y="150" width="5" height="30" rx="2" fill="#3e6fb0"/><line x1="398" y1="146" x2="786" y2="146" stroke="#e9ebef" stroke-width="1"/><text x="416" y="162" font-size="13" fill="#1b2130" font-family="'Latin Modern Mono', 'DejaVu Sans Mono', 'Consolas', monospace" text-anchor="start" font-weight="bold">channel_id</text><text x="772" y="162" font-size="11" fill="#5b6472" font-family="'Latin Modern Mono', 'DejaVu Sans Mono', 'Consolas', monospace" text-anchor="end">uuid</text><text x="416" y="176" font-size="9.6" fill="#8a8f99" font-family="'New Computer Modern', 'Latin Modern Roman', Georgia, 'Times New Roman', serif" text-anchor="start">FK → channels · ON DELETE CASCADE</text><rect x="728" y="167" width="46" height="17" rx="8.5" fill="#eeeaf8" stroke="#5a46a8" stroke-width="1.1"/><text x="751.0" y="179" font-size="10" fill="#5a46a8" font-family="'Latin Modern Mono', 'DejaVu Sans Mono', 'Consolas', monospace" text-anchor="middle" font-weight="bold">btree</text><rect x="400" y="188" width="5" height="30" rx="2" fill="#3e6fb0"/><line x1="398" y1="184" x2="786" y2="184" stroke="#e9ebef" stroke-width="1"/><text x="416" y="200" font-size="13" fill="#1b2130" font-family="'Latin Modern Mono', 'DejaVu Sans Mono', 'Consolas', monospace" text-anchor="start" font-weight="bold">sender_id</text><text x="772" y="200" font-size="11" fill="#5b6472" font-family="'Latin Modern Mono', 'DejaVu Sans Mono', 'Consolas', monospace" text-anchor="end">uuid</text><text x="416" y="214" font-size="9.6" fill="#8a8f99" font-family="'New Computer Modern', 'Latin Modern Roman', Georgia, 'Times New Roman', serif" text-anchor="start">FK → users · SET NULL · NULL for bot</text><rect x="400" y="222" width="384" height="38" rx="0" fill="#e7f2f4"/><rect x="400" y="226" width="5" height="30" rx="2" fill="#2c8c9a"/><line x1="398" y1="222" x2="786" y2="222" stroke="#e9ebef" stroke-width="1"/><text x="416" y="238" font-size="13" fill="#1b2130" font-family="'Latin Modern Mono', 'DejaVu Sans Mono', 'Consolas', monospace" text-anchor="start" font-weight="bold">content</text><text x="772" y="238" font-size="11" fill="#5b6472" font-family="'Latin Modern Mono', 'DejaVu Sans Mono', 'Consolas', monospace" text-anchor="end">jsonb</text><text x="416" y="252" font-size="9.6" fill="#8a8f99" font-family="'New Computer Modern', 'Latin Modern Roman', Georgia, 'Times New Roman', serif" text-anchor="start">ProseMirror doc · NOT NULL</text><rect x="734" y="243" width="40" height="17" rx="8.5" fill="#e6f3ea" stroke="#2e7d46" stroke-width="1.1"/><text x="754.0" y="255" font-size="10" fill="#2e7d46" font-family="'Latin Modern Mono', 'DejaVu Sans Mono', 'Consolas', monospace" text-anchor="middle" font-weight="bold">GIN</text><rect x="400" y="260" width="384" height="38" rx="0" fill="#fbf2de"/><rect x="400" y="264" width="5" height="30" rx="2" fill="#c4913a"/><line x1="398" y1="260" x2="786" y2="260" stroke="#e9ebef" stroke-width="1"/><text x="416" y="276" font-size="13" fill="#1b2130" font-family="'Latin Modern Mono', 'DejaVu Sans Mono', 'Consolas', monospace" text-anchor="start" font-weight="bold">mentioned_user_ids</text><text x="772" y="276" font-size="11" fill="#5b6472" font-family="'Latin Modern Mono', 'DejaVu Sans Mono', 'Consolas', monospace" text-anchor="end">uuid[]</text><text x="416" y="290" font-size="9.6" fill="#8a8f99" font-family="'New Computer Modern', 'Latin Modern Roman', Georgia, 'Times New Roman', serif" text-anchor="start">derived · @&gt; containment fanout</text><rect x="734" y="281" width="40" height="17" rx="8.5" fill="#e6f3ea" stroke="#2e7d46" stroke-width="1.1"/><text x="754.0" y="293" font-size="10" fill="#2e7d46" font-family="'Latin Modern Mono', 'DejaVu Sans Mono', 'Consolas', monospace" text-anchor="middle" font-weight="bold">GIN</text><rect x="400" y="298" width="384" height="38" rx="0" fill="#fbf2de"/><rect x="400" y="302" width="5" height="30" rx="2" fill="#c4913a"/><line x1="398" y1="298" x2="786" y2="298" stroke="#e9ebef" stroke-width="1"/><text x="416" y="314" font-size="13" fill="#1b2130" font-family="'Latin Modern Mono', 'DejaVu Sans Mono', 'Consolas', monospace" text-anchor="start" font-weight="bold">content_size_bytes</text><text x="772" y="314" font-size="11" fill="#5b6472" font-family="'Latin Modern Mono', 'DejaVu Sans Mono', 'Consolas', monospace" text-anchor="end">integer</text><text x="416" y="328" font-size="9.6" fill="#8a8f99" font-family="'New Computer Modern', 'Latin Modern Roman', Georgia, 'Times New Roman', serif" text-anchor="start">derived · O(1) size audits</text><rect x="400" y="340" width="5" height="30" rx="2" fill="#3e6fb0"/><line x1="398" y1="336" x2="786" y2="336" stroke="#e9ebef" stroke-width="1"/><text x="416" y="352" font-size="13" fill="#1b2130" font-family="'Latin Modern Mono', 'DejaVu Sans Mono', 'Consolas', monospace" text-anchor="start" font-weight="bold">reply_to_id</text><text x="772" y="352" font-size="11" fill="#5b6472" font-family="'Latin Modern Mono', 'DejaVu Sans Mono', 'Consolas', monospace" text-anchor="end">uuid</text><text x="416" y="366" font-size="9.6" fill="#8a8f99" font-family="'New Computer Modern', 'Latin Modern Roman', Georgia, 'Times New Roman', serif" text-anchor="start">FK → messages (self) · SET NULL</text><rect x="400" y="374" width="384" height="38" rx="0" fill="#f7f7f5"/><line x1="398" y1="374" x2="786" y2="374" stroke="#e9ebef" stroke-width="1"/><text x="416" y="390" font-size="13" fill="#1b2130" font-family="'Latin Modern Mono', 'DejaVu Sans Mono', 'Consolas', monospace" text-anchor="start" font-weight="bold">role</text><text x="772" y="390" font-size="11" fill="#5b6472" font-family="'Latin Modern Mono', 'DejaVu Sans Mono', 'Consolas', monospace" text-anchor="end">messagerole</text><text x="416" y="404" font-size="9.6" fill="#8a8f99" font-family="'New Computer Modern', 'Latin Modern Roman', Georgia, 'Times New Roman', serif" text-anchor="start">user · assistant · system</text><line x1="398" y1="412" x2="786" y2="412" stroke="#e9ebef" stroke-width="1"/><text x="416" y="428" font-size="13" fill="#1b2130" font-family="'Latin Modern Mono', 'DejaVu Sans Mono', 'Consolas', monospace" text-anchor="start" font-weight="bold">sent_at</text><text x="772" y="428" font-size="11" fill="#5b6472" font-family="'Latin Modern Mono', 'DejaVu Sans Mono', 'Consolas', monospace" text-anchor="end">timestamptz</text><text x="416" y="442" font-size="9.6" fill="#8a8f99" font-family="'New Computer Modern', 'Latin Modern Roman', Georgia, 'Times New Roman', serif" text-anchor="start">default now()</text><rect x="728" y="433" width="46" height="17" rx="8.5" fill="#eeeaf8" stroke="#5a46a8" stroke-width="1.1"/><text x="751.0" y="445" font-size="10" fill="#5a46a8" font-family="'Latin Modern Mono', 'DejaVu Sans Mono', 'Consolas', monospace" text-anchor="middle" font-weight="bold">btree</text><rect x="400" y="450" width="384" height="38" rx="0" fill="#f7f7f5"/><line x1="398" y1="450" x2="786" y2="450" stroke="#e9ebef" stroke-width="1"/><text x="416" y="466" font-size="13" fill="#1b2130" font-family="'Latin Modern Mono', 'DejaVu Sans Mono', 'Consolas', monospace" text-anchor="start" font-weight="bold">indexed_at</text><text x="772" y="466" font-size="11" fill="#5b6472" font-family="'Latin Modern Mono', 'DejaVu Sans Mono', 'Consolas', monospace" text-anchor="end">timestamptz</text><text x="416" y="480" font-size="9.6" fill="#8a8f99" font-family="'New Computer Modern', 'Latin Modern Roman', Georgia, 'Times New Roman', serif" text-anchor="start">NULL until chat-memory indexer runs</text><line x1="398" y1="488" x2="786" y2="488" stroke="#e9ebef" stroke-width="1"/><text x="416" y="504" font-size="13" fill="#1b2130" font-family="'Latin Modern Mono', 'DejaVu Sans Mono', 'Consolas', monospace" text-anchor="start" font-weight="bold">edited_at</text><text x="772" y="504" font-size="11" fill="#5b6472" font-family="'Latin Modern Mono', 'DejaVu Sans Mono', 'Consolas', monospace" text-anchor="end">timestamptz</text><text x="416" y="518" font-size="9.6" fill="#8a8f99" font-family="'New Computer Modern', 'Latin Modern Roman', Georgia, 'Times New Roman', serif" text-anchor="start">NULL · edit-history stamp</text><rect x="400" y="526" width="384" height="38" rx="0" fill="#f7f7f5"/><line x1="398" y1="526" x2="786" y2="526" stroke="#e9ebef" stroke-width="1"/><text x="416" y="542" font-size="13" fill="#1b2130" font-family="'Latin Modern Mono', 'DejaVu Sans Mono', 'Consolas', monospace" text-anchor="start" font-weight="bold">is_deleted</text><text x="772" y="542" font-size="11" fill="#5b6472" font-family="'Latin Modern Mono', 'DejaVu Sans Mono', 'Consolas', monospace" text-anchor="end">boolean</text><text x="416" y="556" font-size="9.6" fill="#8a8f99" font-family="'New Computer Modern', 'Latin Modern Roman', Georgia, 'Times New Roman', serif" text-anchor="start">soft delete · preserves thread shape</text><rect x="60" y="214" width="288" height="150" rx="10" fill="#ffffff" stroke="#c4913a" stroke-width="1.6"/><rect x="60" y="214" width="288" height="26" rx="10" fill="#fbf2de"/><rect x="60" y="228" width="288" height="12" rx="0" fill="#fbf2de"/><text x="74" y="232" font-size="12.5" fill="#8a6420" font-family="'Latin Modern Mono', 'DejaVu Sans Mono', 'Consolas', monospace" text-anchor="start" font-weight="bold">set_content(doc)</text><text x="74" y="258" font-size="10" fill="#1b2130" font-family="'New Computer Modern', 'Latin Modern Roman', Georgia, 'Times New Roman', serif" text-anchor="start">The only sanctioned write path.</text><text x="74" y="274" font-size="10" fill="#1b2130" font-family="'New Computer Modern', 'Latin Modern Roman', Georgia, 'Times New Roman', serif" text-anchor="start">Writes three columns atomically:</text><text x="74" y="290" font-size="9.6" fill="#4a5162" font-family="'Latin Modern Mono', 'DejaVu Sans Mono', 'Consolas', monospace" text-anchor="start">· content            ← doc.to_json()</text><text x="74" y="306" font-size="9.6" fill="#4a5162" font-family="'Latin Modern Mono', 'DejaVu Sans Mono', 'Consolas', monospace" text-anchor="start">· content_size_bytes ← len(json)</text><text x="74" y="322" font-size="9.6" fill="#4a5162" font-family="'Latin Modern Mono', 'DejaVu Sans Mono', 'Consolas', monospace" text-anchor="start">· mentioned_user_ids ← walk AST</text><text x="74" y="340" font-size="9.2" fill="#8a8f99" font-family="'New Computer Modern', 'Latin Modern Roman', Georgia, 'Times New Roman', serif" text-anchor="start" font-style="italic">parse_doc() validates schema + size first</text><path d="M348,289.0 C382,289.0 364,241.0 396,241.0" fill="none" stroke="#c4913a" stroke-width="1.5"/><path d="M396.0,241.0 L387.5,245.7 L387.5,236.3 Z" fill="#c4913a"/><path d="M348,289.0 C382,289.0 364,279.0 396,279.0" fill="none" stroke="#c4913a" stroke-width="1.5"/><path d="M396.0,279.0 L387.5,283.7 L387.5,274.3 Z" fill="#c4913a"/><path d="M348,289.0 C382,289.0 364,317.0 396,317.0" fill="none" stroke="#c4913a" stroke-width="1.5"/><path d="M396.0,317.0 L387.5,321.7 L387.5,312.3 Z" fill="#c4913a"/><text x="828" y="138" font-size="11" fill="#8a8f99" font-family="'New Computer Modern', 'Latin Modern Roman', Georgia, 'Times New Roman', serif" text-anchor="start" font-weight="bold" letter-spacing="1.5">INDEXES</text><path d="M786,241.0 C826,241.0 788,183.0 826,183.0" fill="none" stroke="#2e7d46" stroke-width="1.5"/><path d="M826.0,183.0 L817.5,187.7 L817.5,178.3 Z" fill="#2e7d46"/><rect x="828" y="150" width="320" height="66" rx="9" fill="#e6f3ea" stroke="#2e7d46" stroke-width="1.5"/><rect x="828" y="150" width="5" height="66" rx="2" fill="#2e7d46"/><text x="844" y="170" font-size="11.5" fill="#1b2130" font-family="'Latin Modern Mono', 'DejaVu Sans Mono', 'Consolas', monospace" text-anchor="start" font-weight="bold">ix_messages_content_gin</text><text x="844" y="187" font-size="10.2" fill="#404757" font-family="'Latin Modern Mono', 'DejaVu Sans Mono', 'Consolas', monospace" text-anchor="start">GIN · content (jsonb)</text><text x="844" y="203" font-size="9.8" fill="#5b6472" font-family="'New Computer Modern', 'Latin Modern Roman', Georgia, 'Times New Roman', serif" text-anchor="start">server-side AST / full-text scans</text><path d="M786,279.0 C826,279.0 788,290.0 826,290.0" fill="none" stroke="#2e7d46" stroke-width="1.5"/><path d="M826.0,290.0 L817.5,294.7 L817.5,285.3 Z" fill="#2e7d46"/><rect x="828" y="250" width="320" height="80" rx="9" fill="#e6f3ea" stroke="#2e7d46" stroke-width="1.5"/><rect x="828" y="250" width="5" height="80" rx="2" fill="#2e7d46"/><text x="844" y="270" font-size="11.5" fill="#1b2130" font-family="'Latin Modern Mono', 'DejaVu Sans Mono', 'Consolas', monospace" text-anchor="start" font-weight="bold">ix_messages_mentioned_user_ids_gin</text><text x="844" y="287" font-size="10.2" fill="#404757" font-family="'Latin Modern Mono', 'DejaVu Sans Mono', 'Consolas', monospace" text-anchor="start">GIN · mentioned_user_ids (uuid[])</text><text x="844" y="303" font-size="9.8" fill="#5b6472" font-family="'New Computer Modern', 'Latin Modern Roman', Georgia, 'Times New Roman', serif" text-anchor="start">fanout: … @&gt; ARRAY[:uid] — index-only</text><path d="M786,431.0 C826,431.0 788,412.0 826,412.0" fill="none" stroke="#5a46a8" stroke-width="1.5"/><path d="M826.0,412.0 L817.5,416.7 L817.5,407.3 Z" fill="#5a46a8"/><rect x="828" y="372" width="320" height="80" rx="9" fill="#eeeaf8" stroke="#5a46a8" stroke-width="1.5"/><rect x="828" y="372" width="5" height="80" rx="2" fill="#5a46a8"/><text x="844" y="392" font-size="11.5" fill="#1b2130" font-family="'Latin Modern Mono', 'DejaVu Sans Mono', 'Consolas', monospace" text-anchor="start" font-weight="bold">ix_messages_channel_sent_at</text><text x="844" y="409" font-size="10.2" fill="#404757" font-family="'Latin Modern Mono', 'DejaVu Sans Mono', 'Consolas', monospace" text-anchor="start">B-tree · (channel_id, sent_at)</text><text x="844" y="425" font-size="9.8" fill="#5b6472" font-family="'New Computer Modern', 'Latin Modern Roman', Georgia, 'Times New Roman', serif" text-anchor="start">channel timeline + keyset pagination</text><line x1="60" y1="586" x2="1120" y2="586" stroke="#e9ebef" stroke-width="1"/><rect x="60" y="594" width="14" height="14" rx="3" fill="#fbf3dd" stroke="#b8860b" stroke-width="1.3"/><text x="80" y="605" font-size="10.5" fill="#1b2130" font-family="'New Computer Modern', 'Latin Modern Roman', Georgia, 'Times New Roman', serif" text-anchor="start">PK</text><rect x="128.8" y="594" width="14" height="14" rx="3" fill="#eaf1fb" stroke="#3e6fb0" stroke-width="1.3"/><text x="148.8" y="605" font-size="10.5" fill="#1b2130" font-family="'New Computer Modern', 'Latin Modern Roman', Georgia, 'Times New Roman', serif" text-anchor="start">FK / self-FK</text><rect x="261.6" y="594" width="14" height="14" rx="3" fill="#e7f2f4" stroke="#2c8c9a" stroke-width="1.3"/><text x="281.6" y="605" font-size="10.5" fill="#1b2130" font-family="'New Computer Modern', 'Latin Modern Roman', Georgia, 'Times New Roman', serif" text-anchor="start">content (source)</text><rect x="420.0" y="594" width="14" height="14" rx="3" fill="#fbf2de" stroke="#c4913a" stroke-width="1.3"/><text x="440.0" y="605" font-size="10.5" fill="#1b2130" font-family="'New Computer Modern', 'Latin Modern Roman', Georgia, 'Times New Roman', serif" text-anchor="start">derived — set_content()</text><rect x="623.2" y="594" width="14" height="14" rx="3" fill="#e6f3ea" stroke="#2e7d46" stroke-width="1.3"/><text x="643.2" y="605" font-size="10.5" fill="#1b2130" font-family="'New Computer Modern', 'Latin Modern Roman', Georgia, 'Times New Roman', serif" text-anchor="start">GIN index</text><rect x="736.8000000000001" y="594" width="14" height="14" rx="3" fill="#eeeaf8" stroke="#5a46a8" stroke-width="1.3"/><text x="756.8000000000001" y="605" font-size="10.5" fill="#1b2130" font-family="'New Computer Modern', 'Latin Modern Roman', Georgia, 'Times New Roman', serif" text-anchor="start">B-tree index</text><text x="60" y="634" font-size="10" fill="#5b6472" font-family="'New Computer Modern', 'Latin Modern Roman', Georgia, 'Times New Roman', serif" text-anchor="start" font-style="italic">parse_doc() is the validation gate — enforced at the API boundary (MessageCreateSchema) and again as a Pydantic validator (MessageSchema).</text></svg>